%TF.GenerationSoftware,KiCad,Pcbnew,(6.0.1-0)*%
%TF.CreationDate,2022-12-29T15:08:46-03:00*%
%TF.ProjectId,macro,6d616372-6f2e-46b6-9963-61645f706362,rev?*%
%TF.SameCoordinates,Original*%
%TF.FileFunction,Paste,Bot*%
%TF.FilePolarity,Positive*%
%FSLAX46Y46*%
G04 Gerber Fmt 4.6, Leading zero omitted, Abs format (unit mm)*
G04 Created by KiCad (PCBNEW (6.0.1-0)) date 2022-12-29 15:08:46*
%MOMM*%
%LPD*%
G01*
G04 APERTURE LIST*
G04 Aperture macros list*
%AMRoundRect*
0 Rectangle with rounded corners*
0 $1 Rounding radius*
0 $2 $3 $4 $5 $6 $7 $8 $9 X,Y pos of 4 corners*
0 Add a 4 corners polygon primitive as box body*
4,1,4,$2,$3,$4,$5,$6,$7,$8,$9,$2,$3,0*
0 Add four circle primitives for the rounded corners*
1,1,$1+$1,$2,$3*
1,1,$1+$1,$4,$5*
1,1,$1+$1,$6,$7*
1,1,$1+$1,$8,$9*
0 Add four rect primitives between the rounded corners*
20,1,$1+$1,$2,$3,$4,$5,0*
20,1,$1+$1,$4,$5,$6,$7,0*
20,1,$1+$1,$6,$7,$8,$9,0*
20,1,$1+$1,$8,$9,$2,$3,0*%
G04 Aperture macros list end*
%ADD10RoundRect,0.135000X0.135000X0.185000X-0.135000X0.185000X-0.135000X-0.185000X0.135000X-0.185000X0*%
%ADD11R,0.700000X0.700000*%
%ADD12RoundRect,0.135000X-0.135000X-0.185000X0.135000X-0.185000X0.135000X0.185000X-0.135000X0.185000X0*%
%ADD13R,1.400000X1.200000*%
%ADD14R,0.450000X0.600000*%
%ADD15R,0.600000X1.450000*%
%ADD16R,0.300000X1.450000*%
%ADD17RoundRect,0.140000X0.140000X0.170000X-0.140000X0.170000X-0.140000X-0.170000X0.140000X-0.170000X0*%
%ADD18RoundRect,0.140000X-0.140000X-0.170000X0.140000X-0.170000X0.140000X0.170000X-0.140000X0.170000X0*%
%ADD19RoundRect,0.135000X-0.185000X0.135000X-0.185000X-0.135000X0.185000X-0.135000X0.185000X0.135000X0*%
%ADD20RoundRect,0.147500X-0.172500X0.147500X-0.172500X-0.147500X0.172500X-0.147500X0.172500X0.147500X0*%
%ADD21RoundRect,0.250000X0.435000X0.615000X-0.435000X0.615000X-0.435000X-0.615000X0.435000X-0.615000X0*%
%ADD22RoundRect,0.125000X0.250000X0.125000X-0.250000X0.125000X-0.250000X-0.125000X0.250000X-0.125000X0*%
%ADD23RoundRect,0.140000X0.170000X-0.140000X0.170000X0.140000X-0.170000X0.140000X-0.170000X-0.140000X0*%
%ADD24RoundRect,0.140000X-0.170000X0.140000X-0.170000X-0.140000X0.170000X-0.140000X0.170000X0.140000X0*%
%ADD25RoundRect,0.150000X-0.512500X-0.150000X0.512500X-0.150000X0.512500X0.150000X-0.512500X0.150000X0*%
%ADD26R,0.600000X0.450000*%
%ADD27RoundRect,0.135000X0.185000X-0.135000X0.185000X0.135000X-0.185000X0.135000X-0.185000X-0.135000X0*%
%ADD28RoundRect,0.249999X0.395001X0.395001X-0.395001X0.395001X-0.395001X-0.395001X0.395001X-0.395001X0*%
%ADD29RoundRect,0.050000X0.387500X0.050000X-0.387500X0.050000X-0.387500X-0.050000X0.387500X-0.050000X0*%
%ADD30RoundRect,0.050000X0.050000X0.387500X-0.050000X0.387500X-0.050000X-0.387500X0.050000X-0.387500X0*%
%ADD31RoundRect,0.150000X0.587500X0.150000X-0.587500X0.150000X-0.587500X-0.150000X0.587500X-0.150000X0*%
%ADD32R,1.000000X0.900000*%
G04 APERTURE END LIST*
D10*
%TO.C,R9*%
X114010000Y-88390000D03*
X112990000Y-88390000D03*
%TD*%
D11*
%TO.C,D9*%
X110915000Y-105950000D03*
X110915000Y-107050000D03*
X109085000Y-107050000D03*
X109085000Y-105950000D03*
%TD*%
D12*
%TO.C,R6*%
X130210000Y-88430000D03*
X131230000Y-88430000D03*
%TD*%
D13*
%TO.C,Y1*%
X142650000Y-107860000D03*
X144850000Y-107860000D03*
X144850000Y-109560000D03*
X142650000Y-109560000D03*
%TD*%
D12*
%TO.C,R5*%
X130210000Y-87180000D03*
X131230000Y-87180000D03*
%TD*%
D14*
%TO.C,D6*%
X132040000Y-98650000D03*
X132040000Y-96550000D03*
%TD*%
D15*
%TO.C,USB1*%
X124325000Y-84500000D03*
X125100000Y-84500000D03*
D16*
X125800000Y-84500000D03*
X126300000Y-84500000D03*
X126800000Y-84500000D03*
X127300000Y-84500000D03*
X127800000Y-84500000D03*
X128300000Y-84500000D03*
X128800000Y-84500000D03*
X129300000Y-84500000D03*
D15*
X130000000Y-84500000D03*
X130775000Y-84500000D03*
%TD*%
D14*
%TO.C,D3*%
X186000000Y-89550000D03*
X186000000Y-87450000D03*
%TD*%
D11*
%TO.C,D11*%
X188085000Y-98550000D03*
X188085000Y-97450000D03*
X189915000Y-97450000D03*
X189915000Y-98550000D03*
%TD*%
D17*
%TO.C,C9*%
X138720000Y-96130000D03*
X137760000Y-96130000D03*
%TD*%
D11*
%TO.C,D12*%
X188085000Y-107550000D03*
X188085000Y-106450000D03*
X189915000Y-106450000D03*
X189915000Y-107550000D03*
%TD*%
D18*
%TO.C,C3*%
X141845000Y-79990000D03*
X142805000Y-79990000D03*
%TD*%
D11*
%TO.C,D7*%
X110915000Y-88450000D03*
X110915000Y-89550000D03*
X109085000Y-89550000D03*
X109085000Y-88450000D03*
%TD*%
%TO.C,D8*%
X110915000Y-96950000D03*
X110915000Y-98050000D03*
X109085000Y-98050000D03*
X109085000Y-96950000D03*
%TD*%
D14*
%TO.C,D5*%
X186050000Y-108550000D03*
X186050000Y-106450000D03*
%TD*%
D19*
%TO.C,R2*%
X133710000Y-83295000D03*
X133710000Y-84315000D03*
%TD*%
D20*
%TO.C,F1*%
X125100000Y-86030000D03*
X125100000Y-87000000D03*
%TD*%
D21*
%TO.C,U2*%
X143695000Y-84510000D03*
X145395000Y-84510000D03*
X143695000Y-82360000D03*
X145395000Y-82360000D03*
D22*
X147245000Y-81530000D03*
X147245000Y-82800000D03*
X147245000Y-84070000D03*
X147245000Y-85340000D03*
X141845000Y-85340000D03*
X141845000Y-84070000D03*
X141845000Y-82800000D03*
X141845000Y-81530000D03*
%TD*%
D19*
%TO.C,R8*%
X117460000Y-90040000D03*
X117460000Y-91060000D03*
%TD*%
D18*
%TO.C,C10*%
X148740000Y-95580000D03*
X149700000Y-95580000D03*
%TD*%
D17*
%TO.C,C6*%
X145480000Y-106240000D03*
X144520000Y-106240000D03*
%TD*%
D23*
%TO.C,C2*%
X136697500Y-92960000D03*
X136697500Y-92000000D03*
%TD*%
D24*
%TO.C,C4*%
X123000000Y-95770000D03*
X123000000Y-96730000D03*
%TD*%
D25*
%TO.C,U1*%
X132810000Y-92930000D03*
X132810000Y-91980000D03*
X132810000Y-91030000D03*
X135085000Y-91030000D03*
X135085000Y-92930000D03*
%TD*%
D23*
%TO.C,C13*%
X140250000Y-93170000D03*
X140250000Y-92210000D03*
%TD*%
D14*
%TO.C,D4*%
X167000000Y-108550000D03*
X167000000Y-106450000D03*
%TD*%
D12*
%TO.C,R4*%
X115500000Y-85640000D03*
X116520000Y-85640000D03*
%TD*%
D18*
%TO.C,C14*%
X148710000Y-99740000D03*
X149670000Y-99740000D03*
%TD*%
D14*
%TO.C,D2*%
X167000000Y-89550000D03*
X167000000Y-87450000D03*
%TD*%
D17*
%TO.C,C12*%
X141290000Y-105270000D03*
X140330000Y-105270000D03*
%TD*%
D23*
%TO.C,C15*%
X139000000Y-93170000D03*
X139000000Y-92210000D03*
%TD*%
D26*
%TO.C,D1*%
X127180000Y-89240000D03*
X125080000Y-89240000D03*
%TD*%
D18*
%TO.C,C7*%
X142430000Y-106230000D03*
X143390000Y-106230000D03*
%TD*%
D23*
%TO.C,C1*%
X131110000Y-92920000D03*
X131110000Y-91960000D03*
%TD*%
%TO.C,C16*%
X141500000Y-93170000D03*
X141500000Y-92210000D03*
%TD*%
D27*
%TO.C,R7*%
X143620000Y-105190000D03*
X143620000Y-104170000D03*
%TD*%
D24*
%TO.C,C5*%
X123000000Y-98260000D03*
X123000000Y-99220000D03*
%TD*%
D10*
%TO.C,R3*%
X148265000Y-79925000D03*
X147245000Y-79925000D03*
%TD*%
D17*
%TO.C,C17*%
X141290000Y-104030000D03*
X140330000Y-104030000D03*
%TD*%
D11*
%TO.C,D10*%
X188085000Y-90050000D03*
X188085000Y-88950000D03*
X189915000Y-88950000D03*
X189915000Y-90050000D03*
%TD*%
D19*
%TO.C,R1*%
X121460000Y-83295000D03*
X121460000Y-84315000D03*
%TD*%
D28*
%TO.C,U3*%
X144550000Y-97940000D03*
X142950000Y-97940000D03*
X142950000Y-99540000D03*
X144550000Y-99540000D03*
D29*
X147187500Y-96140000D03*
X147187500Y-96540000D03*
X147187500Y-96940000D03*
X147187500Y-97340000D03*
X147187500Y-97740000D03*
X147187500Y-98140000D03*
X147187500Y-98540000D03*
X147187500Y-98940000D03*
X147187500Y-99340000D03*
X147187500Y-99740000D03*
X147187500Y-100140000D03*
X147187500Y-100540000D03*
X147187500Y-100940000D03*
X147187500Y-101340000D03*
D30*
X146350000Y-102177500D03*
X145950000Y-102177500D03*
X145550000Y-102177500D03*
X145150000Y-102177500D03*
X144750000Y-102177500D03*
X144350000Y-102177500D03*
X143950000Y-102177500D03*
X143550000Y-102177500D03*
X143150000Y-102177500D03*
X142750000Y-102177500D03*
X142350000Y-102177500D03*
X141950000Y-102177500D03*
X141550000Y-102177500D03*
X141150000Y-102177500D03*
D29*
X140312500Y-101340000D03*
X140312500Y-100940000D03*
X140312500Y-100540000D03*
X140312500Y-100140000D03*
X140312500Y-99740000D03*
X140312500Y-99340000D03*
X140312500Y-98940000D03*
X140312500Y-98540000D03*
X140312500Y-98140000D03*
X140312500Y-97740000D03*
X140312500Y-97340000D03*
X140312500Y-96940000D03*
X140312500Y-96540000D03*
X140312500Y-96140000D03*
D30*
X141150000Y-95302500D03*
X141550000Y-95302500D03*
X141950000Y-95302500D03*
X142350000Y-95302500D03*
X142750000Y-95302500D03*
X143150000Y-95302500D03*
X143550000Y-95302500D03*
X143950000Y-95302500D03*
X144350000Y-95302500D03*
X144750000Y-95302500D03*
X145150000Y-95302500D03*
X145550000Y-95302500D03*
X145950000Y-95302500D03*
X146350000Y-95302500D03*
%TD*%
D12*
%TO.C,R10*%
X130130000Y-90840000D03*
X131150000Y-90840000D03*
%TD*%
D23*
%TO.C,C8*%
X143445000Y-92710000D03*
X143445000Y-91750000D03*
%TD*%
D17*
%TO.C,C11*%
X138710000Y-99740000D03*
X137750000Y-99740000D03*
%TD*%
D31*
%TO.C,Q1*%
X115447500Y-90050000D03*
X115447500Y-91950000D03*
X113572500Y-91000000D03*
%TD*%
D32*
%TO.C,SW2*%
X115200000Y-84050000D03*
X115200000Y-79950000D03*
X116800000Y-79950000D03*
X116800000Y-84050000D03*
%TD*%
D23*
%TO.C,C18*%
X144695000Y-92710000D03*
X144695000Y-91750000D03*
%TD*%
M02*
