M48
; DRILL file {KiCad (6.0.1-0)} date 2022 October 25, Tuesday 12:30:23
; FORMAT={-:-/ absolute / inch / decimal}
; #@! TF.CreationDate,2022-10-25T12:30:23+02:00
; #@! TF.GenerationSoftware,Kicad,Pcbnew,(6.0.1-0)
; #@! TF.FileFunction,Plated,1,2,PTH
FMAT,2
INCH
; #@! TA.AperFunction,Plated,PTH,ViaDrill
T1C0.0157
; #@! TA.AperFunction,Plated,PTH,ComponentDrill
T2C0.0236
; #@! TA.AperFunction,Plated,PTH,ComponentDrill
T3C0.0579
%
G90
G05
T1
X4.4062Y-4.0938
X4.5Y-3.4375
X4.5Y-4.25
X4.5625Y-3.5
X4.6159Y-3.7933
X4.6572Y-3.7933
X4.679Y-3.7021
X4.7082Y-3.6729
X4.8199Y-3.5074
X4.8438Y-3.4375
X4.875Y-3.6875
X4.921Y-3.8125
X4.9498Y-4.2281
X4.952Y-4.054
X5.0147Y-3.75
X5.0147Y-4.4062
X5.1875Y-3.3438
X5.2812Y-3.1562
X5.4835Y-4.4062
X5.5Y-4.0312
X5.5772Y-4.0312
X5.65Y-3.95
X5.65Y-4.25
T3
X5.9308Y-3.3871
X5.9308Y-4.1371
X5.9824Y-3.3296
X5.9824Y-4.0796
X6.1792Y-3.3099
X6.1792Y-4.0599
X6.1808Y-3.2871
X6.1808Y-4.0371
X6.6808Y-3.3871
X6.6808Y-4.1371
X6.7324Y-3.3296
X6.7324Y-4.0796
X6.9292Y-3.3099
X6.9292Y-4.0599
X6.9308Y-3.2871
X6.9308Y-4.0371
T2
G00X4.4862Y-3.1531
M15
G01X4.4862Y-3.1767
M16
G05
G00X4.4862Y-3.3078
M15
G01X4.4862Y-3.3511
M16
G05
G00X4.8263Y-3.1531
M15
G01X4.8263Y-3.1767
M16
G05
G00X4.8263Y-3.3078
M15
G01X4.8263Y-3.3511
M16
G05
T0
M30
