M48
; DRILL file {KiCad (6.0.1-0)} date 2022 December 29, Thursday 15:08:39
; FORMAT={-:-/ absolute / inch / decimal}
; #@! TF.CreationDate,2022-12-29T15:08:39-03:00
; #@! TF.GenerationSoftware,Kicad,Pcbnew,(6.0.1-0)
; #@! TF.FileFunction,Plated,1,2,PTH
FMAT,2
INCH
; #@! TA.AperFunction,Plated,PTH,ViaDrill
T1C0.0118
; #@! TA.AperFunction,Plated,PTH,ComponentDrill
T2C0.0236
; #@! TA.AperFunction,Plated,PTH,ComponentDrill
T3C0.0394
; #@! TA.AperFunction,Plated,PTH,ComponentDrill
T4C0.0579
; #@! TA.AperFunction,Plated,PTH,ComponentDrill
T5C0.1024
%
G90
G05
T1
X4.2933Y-4.2642
X4.2945Y-3.5661
X4.2945Y-3.9012
X4.4047Y-3.4606
X4.4542Y-3.4411
X4.8122Y-3.3799
X4.9437Y-3.2358
X4.9579Y-3.8079
X4.9732Y-3.279
X5.0829Y-3.2795
X5.1366Y-3.226
X5.1602Y-3.374
X5.3295Y-4.0701
X5.3303Y-3.9996
X5.4055Y-3.9567
X5.4244Y-3.6941
X5.4409Y-4.0522
X5.4417Y-3.9575
X5.4484Y-4.2402
X5.4724Y-4.443
X5.4752Y-4.339
X5.5096Y-4.2409
X5.5126Y-4.1748
X5.5413Y-4.4732
X5.5417Y-4.3937
X5.5791Y-3.5874
X5.6146Y-3.9307
X5.6161Y-3.8457
X5.6443Y-3.788
X5.6469Y-3.5795
X5.6594Y-3.8874
X5.69Y-3.7888
X5.698Y-3.8488
X5.6988Y-3.9295
X5.7581Y-3.1482
X5.7948Y-3.1138
X5.8187Y-3.4128
X5.8551Y-3.8937
X5.8555Y-3.724
X5.8563Y-3.7939
X5.8921Y-3.8933
X5.8933Y-3.7939
X5.9228Y-3.6563
X7.5134Y-3.502
X7.5138Y-4.1902
X7.5201Y-3.837
T3
X4.7244Y-3.75
X4.7244Y-3.8484
X4.7244Y-3.9469
X5.2953Y-3.75
X5.2953Y-3.9469
T4
X6.1123Y-3.3823
X6.1123Y-4.1323
X6.1639Y-3.3248
X6.1639Y-4.0748
X6.3607Y-3.3051
X6.3607Y-4.0551
X6.3623Y-3.2823
X6.3623Y-4.0323
X6.8623Y-3.3823
X6.8623Y-4.1323
X6.9139Y-3.3248
X6.9139Y-4.0748
X7.1107Y-3.3051
X7.1107Y-4.0551
X7.1123Y-3.2823
X7.1123Y-4.0323
T5
X5.0197Y-3.628
X5.0197Y-4.0689
T2
G00X4.8516Y-3.1144
M15
G01X4.8516Y-3.138
M16
G05
G00X4.8516Y-3.2691
M15
G01X4.8516Y-3.3124
M16
G05
G00X5.1917Y-3.1144
M15
G01X5.1917Y-3.138
M16
G05
G00X5.1917Y-3.2691
M15
G01X5.1917Y-3.3124
M16
G05
T0
M30
