%TF.GenerationSoftware,KiCad,Pcbnew,(6.0.1-0)*%
%TF.CreationDate,2022-10-25T12:30:21+02:00*%
%TF.ProjectId,macro,6d616372-6f2e-46b6-9963-61645f706362,rev?*%
%TF.SameCoordinates,Original*%
%TF.FileFunction,Legend,Top*%
%TF.FilePolarity,Positive*%
%FSLAX46Y46*%
G04 Gerber Fmt 4.6, Leading zero omitted, Abs format (unit mm)*
G04 Created by KiCad (PCBNEW (6.0.1-0)) date 2022-10-25 12:30:21*
%MOMM*%
%LPD*%
G01*
G04 APERTURE LIST*
%ADD10C,0.150000*%
%ADD11C,0.120000*%
G04 APERTURE END LIST*
D10*
%TO.C,D5*%
X137109404Y-86177380D02*
X137109404Y-85177380D01*
X137347500Y-85177380D01*
X137490357Y-85225000D01*
X137585595Y-85320238D01*
X137633214Y-85415476D01*
X137680833Y-85605952D01*
X137680833Y-85748809D01*
X137633214Y-85939285D01*
X137585595Y-86034523D01*
X137490357Y-86129761D01*
X137347500Y-86177380D01*
X137109404Y-86177380D01*
X138585595Y-85177380D02*
X138109404Y-85177380D01*
X138061785Y-85653571D01*
X138109404Y-85605952D01*
X138204642Y-85558333D01*
X138442738Y-85558333D01*
X138537976Y-85605952D01*
X138585595Y-85653571D01*
X138633214Y-85748809D01*
X138633214Y-85986904D01*
X138585595Y-86082142D01*
X138537976Y-86129761D01*
X138442738Y-86177380D01*
X138204642Y-86177380D01*
X138109404Y-86129761D01*
X138061785Y-86082142D01*
X133983214Y-80826130D02*
X133411785Y-80826130D01*
X133697500Y-80826130D02*
X133697500Y-79826130D01*
X133602261Y-79968988D01*
X133507023Y-80064226D01*
X133411785Y-80111845D01*
D11*
X134197500Y-79223750D02*
X141497500Y-79223750D01*
X134197500Y-84723750D02*
X141497500Y-84723750D01*
X141497500Y-84723750D02*
X141497500Y-83573750D01*
%TD*%
M02*
