%TF.GenerationSoftware,KiCad,Pcbnew,(6.0.1-0)*%
%TF.CreationDate,2022-10-25T12:30:21+02:00*%
%TF.ProjectId,macro,6d616372-6f2e-46b6-9963-61645f706362,rev?*%
%TF.SameCoordinates,Original*%
%TF.FileFunction,Legend,Bot*%
%TF.FilePolarity,Positive*%
%FSLAX46Y46*%
G04 Gerber Fmt 4.6, Leading zero omitted, Abs format (unit mm)*
G04 Created by KiCad (PCBNEW (6.0.1-0)) date 2022-10-25 12:30:21*
%MOMM*%
%LPD*%
G01*
G04 APERTURE LIST*
%ADD10C,0.127000*%
%ADD11C,0.150000*%
%ADD12C,0.120000*%
G04 APERTURE END LIST*
D10*
X167378440Y-116093179D02*
X167378440Y-115585179D01*
X167209107Y-115948036D01*
X167039773Y-115585179D01*
X167039773Y-116093179D01*
X166580154Y-116093179D02*
X166580154Y-115827084D01*
X166604345Y-115778703D01*
X166652726Y-115754512D01*
X166749488Y-115754512D01*
X166797869Y-115778703D01*
X166580154Y-116068989D02*
X166628535Y-116093179D01*
X166749488Y-116093179D01*
X166797869Y-116068989D01*
X166822059Y-116020608D01*
X166822059Y-115972227D01*
X166797869Y-115923846D01*
X166749488Y-115899655D01*
X166628535Y-115899655D01*
X166580154Y-115875465D01*
X166120535Y-116068989D02*
X166168916Y-116093179D01*
X166265678Y-116093179D01*
X166314059Y-116068989D01*
X166338250Y-116044798D01*
X166362440Y-115996417D01*
X166362440Y-115851274D01*
X166338250Y-115802893D01*
X166314059Y-115778703D01*
X166265678Y-115754512D01*
X166168916Y-115754512D01*
X166120535Y-115778703D01*
X165902821Y-116093179D02*
X165902821Y-115754512D01*
X165902821Y-115851274D02*
X165878630Y-115802893D01*
X165854440Y-115778703D01*
X165806059Y-115754512D01*
X165757678Y-115754512D01*
X165515773Y-116093179D02*
X165564154Y-116068989D01*
X165588345Y-116044798D01*
X165612535Y-115996417D01*
X165612535Y-115851274D01*
X165588345Y-115802893D01*
X165564154Y-115778703D01*
X165515773Y-115754512D01*
X165443202Y-115754512D01*
X165394821Y-115778703D01*
X165370630Y-115802893D01*
X165346440Y-115851274D01*
X165346440Y-115996417D01*
X165370630Y-116044798D01*
X165394821Y-116068989D01*
X165443202Y-116093179D01*
X165515773Y-116093179D01*
X165128726Y-116093179D02*
X165128726Y-115585179D01*
X165128726Y-115778703D02*
X165080345Y-115754512D01*
X164983583Y-115754512D01*
X164935202Y-115778703D01*
X164911011Y-115802893D01*
X164886821Y-115851274D01*
X164886821Y-115996417D01*
X164911011Y-116044798D01*
X164935202Y-116068989D01*
X164983583Y-116093179D01*
X165080345Y-116093179D01*
X165128726Y-116068989D01*
X164596535Y-116093179D02*
X164644916Y-116068989D01*
X164669107Y-116044798D01*
X164693297Y-115996417D01*
X164693297Y-115851274D01*
X164669107Y-115802893D01*
X164644916Y-115778703D01*
X164596535Y-115754512D01*
X164523964Y-115754512D01*
X164475583Y-115778703D01*
X164451392Y-115802893D01*
X164427202Y-115851274D01*
X164427202Y-115996417D01*
X164451392Y-116044798D01*
X164475583Y-116068989D01*
X164523964Y-116093179D01*
X164596535Y-116093179D01*
X163991773Y-116093179D02*
X163991773Y-115827084D01*
X164015964Y-115778703D01*
X164064345Y-115754512D01*
X164161107Y-115754512D01*
X164209488Y-115778703D01*
X163991773Y-116068989D02*
X164040154Y-116093179D01*
X164161107Y-116093179D01*
X164209488Y-116068989D01*
X164233678Y-116020608D01*
X164233678Y-115972227D01*
X164209488Y-115923846D01*
X164161107Y-115899655D01*
X164040154Y-115899655D01*
X163991773Y-115875465D01*
X163749869Y-116093179D02*
X163749869Y-115754512D01*
X163749869Y-115851274D02*
X163725678Y-115802893D01*
X163701488Y-115778703D01*
X163653107Y-115754512D01*
X163604726Y-115754512D01*
X163217678Y-116093179D02*
X163217678Y-115585179D01*
X163217678Y-116068989D02*
X163266059Y-116093179D01*
X163362821Y-116093179D01*
X163411202Y-116068989D01*
X163435392Y-116044798D01*
X163459583Y-115996417D01*
X163459583Y-115851274D01*
X163435392Y-115802893D01*
X163411202Y-115778703D01*
X163362821Y-115754512D01*
X163266059Y-115754512D01*
X163217678Y-115778703D01*
X162637107Y-115754512D02*
X162516154Y-116093179D01*
X162395202Y-115754512D01*
X162104916Y-115585179D02*
X162056535Y-115585179D01*
X162008154Y-115609370D01*
X161983964Y-115633560D01*
X161959773Y-115681941D01*
X161935583Y-115778703D01*
X161935583Y-115899655D01*
X161959773Y-115996417D01*
X161983964Y-116044798D01*
X162008154Y-116068989D01*
X162056535Y-116093179D01*
X162104916Y-116093179D01*
X162153297Y-116068989D01*
X162177488Y-116044798D01*
X162201678Y-115996417D01*
X162225869Y-115899655D01*
X162225869Y-115778703D01*
X162201678Y-115681941D01*
X162177488Y-115633560D01*
X162153297Y-115609370D01*
X162104916Y-115585179D01*
X161717869Y-116044798D02*
X161693678Y-116068989D01*
X161717869Y-116093179D01*
X161742059Y-116068989D01*
X161717869Y-116044798D01*
X161717869Y-116093179D01*
X161209869Y-116093179D02*
X161500154Y-116093179D01*
X161355011Y-116093179D02*
X161355011Y-115585179D01*
X161403392Y-115657750D01*
X161451773Y-115706131D01*
X161500154Y-115730322D01*
X168442821Y-116911059D02*
X168442821Y-116403059D01*
X168321869Y-116403059D01*
X168249297Y-116427250D01*
X168200916Y-116475630D01*
X168176726Y-116524011D01*
X168152535Y-116620773D01*
X168152535Y-116693345D01*
X168176726Y-116790107D01*
X168200916Y-116838488D01*
X168249297Y-116886869D01*
X168321869Y-116911059D01*
X168442821Y-116911059D01*
X167741297Y-116886869D02*
X167789678Y-116911059D01*
X167886440Y-116911059D01*
X167934821Y-116886869D01*
X167959011Y-116838488D01*
X167959011Y-116644964D01*
X167934821Y-116596583D01*
X167886440Y-116572392D01*
X167789678Y-116572392D01*
X167741297Y-116596583D01*
X167717107Y-116644964D01*
X167717107Y-116693345D01*
X167959011Y-116741726D01*
X167523583Y-116886869D02*
X167475202Y-116911059D01*
X167378440Y-116911059D01*
X167330059Y-116886869D01*
X167305869Y-116838488D01*
X167305869Y-116814297D01*
X167330059Y-116765916D01*
X167378440Y-116741726D01*
X167451011Y-116741726D01*
X167499392Y-116717535D01*
X167523583Y-116669154D01*
X167523583Y-116644964D01*
X167499392Y-116596583D01*
X167451011Y-116572392D01*
X167378440Y-116572392D01*
X167330059Y-116596583D01*
X167088154Y-116911059D02*
X167088154Y-116572392D01*
X167088154Y-116403059D02*
X167112345Y-116427250D01*
X167088154Y-116451440D01*
X167063964Y-116427250D01*
X167088154Y-116403059D01*
X167088154Y-116451440D01*
X166628535Y-116572392D02*
X166628535Y-116983630D01*
X166652726Y-117032011D01*
X166676916Y-117056202D01*
X166725297Y-117080392D01*
X166797869Y-117080392D01*
X166846250Y-117056202D01*
X166628535Y-116886869D02*
X166676916Y-116911059D01*
X166773678Y-116911059D01*
X166822059Y-116886869D01*
X166846250Y-116862678D01*
X166870440Y-116814297D01*
X166870440Y-116669154D01*
X166846250Y-116620773D01*
X166822059Y-116596583D01*
X166773678Y-116572392D01*
X166676916Y-116572392D01*
X166628535Y-116596583D01*
X166386630Y-116572392D02*
X166386630Y-116911059D01*
X166386630Y-116620773D02*
X166362440Y-116596583D01*
X166314059Y-116572392D01*
X166241488Y-116572392D01*
X166193107Y-116596583D01*
X166168916Y-116644964D01*
X166168916Y-116911059D01*
X165733488Y-116886869D02*
X165781869Y-116911059D01*
X165878630Y-116911059D01*
X165927011Y-116886869D01*
X165951202Y-116838488D01*
X165951202Y-116644964D01*
X165927011Y-116596583D01*
X165878630Y-116572392D01*
X165781869Y-116572392D01*
X165733488Y-116596583D01*
X165709297Y-116644964D01*
X165709297Y-116693345D01*
X165951202Y-116741726D01*
X165273869Y-116911059D02*
X165273869Y-116403059D01*
X165273869Y-116886869D02*
X165322250Y-116911059D01*
X165419011Y-116911059D01*
X165467392Y-116886869D01*
X165491583Y-116862678D01*
X165515773Y-116814297D01*
X165515773Y-116669154D01*
X165491583Y-116620773D01*
X165467392Y-116596583D01*
X165419011Y-116572392D01*
X165322250Y-116572392D01*
X165273869Y-116596583D01*
X164427202Y-116911059D02*
X164427202Y-116644964D01*
X164451392Y-116596583D01*
X164499773Y-116572392D01*
X164596535Y-116572392D01*
X164644916Y-116596583D01*
X164427202Y-116886869D02*
X164475583Y-116911059D01*
X164596535Y-116911059D01*
X164644916Y-116886869D01*
X164669107Y-116838488D01*
X164669107Y-116790107D01*
X164644916Y-116741726D01*
X164596535Y-116717535D01*
X164475583Y-116717535D01*
X164427202Y-116693345D01*
X164185297Y-116572392D02*
X164185297Y-116911059D01*
X164185297Y-116620773D02*
X164161107Y-116596583D01*
X164112726Y-116572392D01*
X164040154Y-116572392D01*
X163991773Y-116596583D01*
X163967583Y-116644964D01*
X163967583Y-116911059D01*
X163507964Y-116911059D02*
X163507964Y-116403059D01*
X163507964Y-116886869D02*
X163556345Y-116911059D01*
X163653107Y-116911059D01*
X163701488Y-116886869D01*
X163725678Y-116862678D01*
X163749869Y-116814297D01*
X163749869Y-116669154D01*
X163725678Y-116620773D01*
X163701488Y-116596583D01*
X163653107Y-116572392D01*
X163556345Y-116572392D01*
X163507964Y-116596583D01*
X162879011Y-116911059D02*
X162879011Y-116403059D01*
X162879011Y-116596583D02*
X162830630Y-116572392D01*
X162733869Y-116572392D01*
X162685488Y-116596583D01*
X162661297Y-116620773D01*
X162637107Y-116669154D01*
X162637107Y-116814297D01*
X162661297Y-116862678D01*
X162685488Y-116886869D01*
X162733869Y-116911059D01*
X162830630Y-116911059D01*
X162879011Y-116886869D01*
X162201678Y-116572392D02*
X162201678Y-116911059D01*
X162419392Y-116572392D02*
X162419392Y-116838488D01*
X162395202Y-116886869D01*
X162346821Y-116911059D01*
X162274250Y-116911059D01*
X162225869Y-116886869D01*
X162201678Y-116862678D01*
X161959773Y-116911059D02*
X161959773Y-116572392D01*
X161959773Y-116403059D02*
X161983964Y-116427250D01*
X161959773Y-116451440D01*
X161935583Y-116427250D01*
X161959773Y-116403059D01*
X161959773Y-116451440D01*
X161645297Y-116911059D02*
X161693678Y-116886869D01*
X161717869Y-116838488D01*
X161717869Y-116403059D01*
X161524345Y-116572392D02*
X161330821Y-116572392D01*
X161451773Y-116403059D02*
X161451773Y-116838488D01*
X161427583Y-116886869D01*
X161379202Y-116911059D01*
X161330821Y-116911059D01*
X160774440Y-116911059D02*
X160774440Y-116403059D01*
X160774440Y-116596583D02*
X160726059Y-116572392D01*
X160629297Y-116572392D01*
X160580916Y-116596583D01*
X160556726Y-116620773D01*
X160532535Y-116669154D01*
X160532535Y-116814297D01*
X160556726Y-116862678D01*
X160580916Y-116886869D01*
X160629297Y-116911059D01*
X160726059Y-116911059D01*
X160774440Y-116886869D01*
X160363202Y-116572392D02*
X160242250Y-116911059D01*
X160121297Y-116572392D02*
X160242250Y-116911059D01*
X160290630Y-117032011D01*
X160314821Y-117056202D01*
X160363202Y-117080392D01*
X165636726Y-117728939D02*
X165636726Y-117220939D01*
X165346440Y-117728939D01*
X165346440Y-117220939D01*
X165104535Y-117728939D02*
X165104535Y-117390272D01*
X165104535Y-117220939D02*
X165128726Y-117245130D01*
X165104535Y-117269320D01*
X165080345Y-117245130D01*
X165104535Y-117220939D01*
X165104535Y-117269320D01*
X164644916Y-117704749D02*
X164693297Y-117728939D01*
X164790059Y-117728939D01*
X164838440Y-117704749D01*
X164862630Y-117680558D01*
X164886821Y-117632177D01*
X164886821Y-117487034D01*
X164862630Y-117438653D01*
X164838440Y-117414463D01*
X164790059Y-117390272D01*
X164693297Y-117390272D01*
X164644916Y-117414463D01*
X164427202Y-117728939D02*
X164427202Y-117220939D01*
X164378821Y-117535415D02*
X164233678Y-117728939D01*
X164233678Y-117390272D02*
X164427202Y-117583796D01*
X163532154Y-117487034D02*
X163532154Y-117728939D01*
X163701488Y-117220939D02*
X163532154Y-117487034D01*
X163362821Y-117220939D01*
X162975773Y-117390272D02*
X162975773Y-117728939D01*
X163193488Y-117390272D02*
X163193488Y-117656368D01*
X163169297Y-117704749D01*
X163120916Y-117728939D01*
X163048345Y-117728939D01*
X162999964Y-117704749D01*
X162975773Y-117680558D01*
D11*
%TO.C,C8*%
X130439642Y-82139583D02*
X130487261Y-82091964D01*
X130534880Y-81949107D01*
X130534880Y-81853869D01*
X130487261Y-81711011D01*
X130392023Y-81615773D01*
X130296785Y-81568154D01*
X130106309Y-81520535D01*
X129963452Y-81520535D01*
X129772976Y-81568154D01*
X129677738Y-81615773D01*
X129582500Y-81711011D01*
X129534880Y-81853869D01*
X129534880Y-81949107D01*
X129582500Y-82091964D01*
X129630119Y-82139583D01*
X129963452Y-82711011D02*
X129915833Y-82615773D01*
X129868214Y-82568154D01*
X129772976Y-82520535D01*
X129725357Y-82520535D01*
X129630119Y-82568154D01*
X129582500Y-82615773D01*
X129534880Y-82711011D01*
X129534880Y-82901488D01*
X129582500Y-82996726D01*
X129630119Y-83044345D01*
X129725357Y-83091964D01*
X129772976Y-83091964D01*
X129868214Y-83044345D01*
X129915833Y-82996726D01*
X129963452Y-82901488D01*
X129963452Y-82711011D01*
X130011071Y-82615773D01*
X130058690Y-82568154D01*
X130153928Y-82520535D01*
X130344404Y-82520535D01*
X130439642Y-82568154D01*
X130487261Y-82615773D01*
X130534880Y-82711011D01*
X130534880Y-82901488D01*
X130487261Y-82996726D01*
X130439642Y-83044345D01*
X130344404Y-83091964D01*
X130153928Y-83091964D01*
X130058690Y-83044345D01*
X130011071Y-82996726D01*
X129963452Y-82901488D01*
%TO.C,USB1*%
X120006845Y-86489880D02*
X120006845Y-87299404D01*
X119959226Y-87394642D01*
X119911607Y-87442261D01*
X119816369Y-87489880D01*
X119625892Y-87489880D01*
X119530654Y-87442261D01*
X119483035Y-87394642D01*
X119435416Y-87299404D01*
X119435416Y-86489880D01*
X119006845Y-87442261D02*
X118863988Y-87489880D01*
X118625892Y-87489880D01*
X118530654Y-87442261D01*
X118483035Y-87394642D01*
X118435416Y-87299404D01*
X118435416Y-87204166D01*
X118483035Y-87108928D01*
X118530654Y-87061309D01*
X118625892Y-87013690D01*
X118816369Y-86966071D01*
X118911607Y-86918452D01*
X118959226Y-86870833D01*
X119006845Y-86775595D01*
X119006845Y-86680357D01*
X118959226Y-86585119D01*
X118911607Y-86537500D01*
X118816369Y-86489880D01*
X118578273Y-86489880D01*
X118435416Y-86537500D01*
X117673511Y-86966071D02*
X117530654Y-87013690D01*
X117483035Y-87061309D01*
X117435416Y-87156547D01*
X117435416Y-87299404D01*
X117483035Y-87394642D01*
X117530654Y-87442261D01*
X117625892Y-87489880D01*
X118006845Y-87489880D01*
X118006845Y-86489880D01*
X117673511Y-86489880D01*
X117578273Y-86537500D01*
X117530654Y-86585119D01*
X117483035Y-86680357D01*
X117483035Y-86775595D01*
X117530654Y-86870833D01*
X117578273Y-86918452D01*
X117673511Y-86966071D01*
X118006845Y-86966071D01*
X116483035Y-87489880D02*
X117054464Y-87489880D01*
X116768750Y-87489880D02*
X116768750Y-86489880D01*
X116863988Y-86632738D01*
X116959226Y-86727976D01*
X117054464Y-86775595D01*
%TO.C,R2*%
X115621912Y-101433333D02*
X115145722Y-101100000D01*
X115621912Y-100861904D02*
X114621912Y-100861904D01*
X114621912Y-101242857D01*
X114669532Y-101338095D01*
X114717151Y-101385714D01*
X114812389Y-101433333D01*
X114955246Y-101433333D01*
X115050484Y-101385714D01*
X115098103Y-101338095D01*
X115145722Y-101242857D01*
X115145722Y-100861904D01*
X114717151Y-101814285D02*
X114669532Y-101861904D01*
X114621912Y-101957142D01*
X114621912Y-102195238D01*
X114669532Y-102290476D01*
X114717151Y-102338095D01*
X114812389Y-102385714D01*
X114907627Y-102385714D01*
X115050484Y-102338095D01*
X115621912Y-101766666D01*
X115621912Y-102385714D01*
%TO.C,R6*%
X121039880Y-91114583D02*
X120563690Y-90781250D01*
X121039880Y-90543154D02*
X120039880Y-90543154D01*
X120039880Y-90924107D01*
X120087500Y-91019345D01*
X120135119Y-91066964D01*
X120230357Y-91114583D01*
X120373214Y-91114583D01*
X120468452Y-91066964D01*
X120516071Y-91019345D01*
X120563690Y-90924107D01*
X120563690Y-90543154D01*
X120039880Y-91971726D02*
X120039880Y-91781250D01*
X120087500Y-91686011D01*
X120135119Y-91638392D01*
X120277976Y-91543154D01*
X120468452Y-91495535D01*
X120849404Y-91495535D01*
X120944642Y-91543154D01*
X120992261Y-91590773D01*
X121039880Y-91686011D01*
X121039880Y-91876488D01*
X120992261Y-91971726D01*
X120944642Y-92019345D01*
X120849404Y-92066964D01*
X120611309Y-92066964D01*
X120516071Y-92019345D01*
X120468452Y-91971726D01*
X120420833Y-91876488D01*
X120420833Y-91686011D01*
X120468452Y-91590773D01*
X120516071Y-91543154D01*
X120611309Y-91495535D01*
%TO.C,D4*%
X183892348Y-106883122D02*
X182892348Y-106883122D01*
X182892348Y-107121218D01*
X182939968Y-107264075D01*
X183035206Y-107359313D01*
X183130444Y-107406932D01*
X183320920Y-107454551D01*
X183463777Y-107454551D01*
X183654253Y-107406932D01*
X183749491Y-107359313D01*
X183844729Y-107264075D01*
X183892348Y-107121218D01*
X183892348Y-106883122D01*
X183225682Y-108311694D02*
X183892348Y-108311694D01*
X182844729Y-108073598D02*
X183559015Y-107835503D01*
X183559015Y-108454551D01*
%TO.C,F1*%
X127722321Y-90154166D02*
X127722321Y-89820833D01*
X128246130Y-89820833D02*
X127246130Y-89820833D01*
X127246130Y-90297023D01*
X128246130Y-91201785D02*
X128246130Y-90630357D01*
X128246130Y-90916071D02*
X127246130Y-90916071D01*
X127388988Y-90820833D01*
X127484226Y-90725595D01*
X127531845Y-90630357D01*
%TO.C,SW1*%
X114045833Y-115498511D02*
X113902976Y-115546130D01*
X113664880Y-115546130D01*
X113569642Y-115498511D01*
X113522023Y-115450892D01*
X113474404Y-115355654D01*
X113474404Y-115260416D01*
X113522023Y-115165178D01*
X113569642Y-115117559D01*
X113664880Y-115069940D01*
X113855357Y-115022321D01*
X113950595Y-114974702D01*
X113998214Y-114927083D01*
X114045833Y-114831845D01*
X114045833Y-114736607D01*
X113998214Y-114641369D01*
X113950595Y-114593750D01*
X113855357Y-114546130D01*
X113617261Y-114546130D01*
X113474404Y-114593750D01*
X113141071Y-114546130D02*
X112902976Y-115546130D01*
X112712500Y-114831845D01*
X112522023Y-115546130D01*
X112283928Y-114546130D01*
X111379166Y-115546130D02*
X111950595Y-115546130D01*
X111664880Y-115546130D02*
X111664880Y-114546130D01*
X111760119Y-114688988D01*
X111855357Y-114784226D01*
X111950595Y-114831845D01*
%TO.C,D1*%
X164842348Y-87833122D02*
X163842348Y-87833122D01*
X163842348Y-88071218D01*
X163889968Y-88214075D01*
X163985206Y-88309313D01*
X164080444Y-88356932D01*
X164270920Y-88404551D01*
X164413777Y-88404551D01*
X164604253Y-88356932D01*
X164699491Y-88309313D01*
X164794729Y-88214075D01*
X164842348Y-88071218D01*
X164842348Y-87833122D01*
X164842348Y-89356932D02*
X164842348Y-88785503D01*
X164842348Y-89071218D02*
X163842348Y-89071218D01*
X163985206Y-88975979D01*
X164080444Y-88880741D01*
X164128063Y-88785503D01*
%TO.C,C4*%
X143511016Y-99845833D02*
X143558635Y-99798214D01*
X143606254Y-99655357D01*
X143606254Y-99560119D01*
X143558635Y-99417261D01*
X143463397Y-99322023D01*
X143368159Y-99274404D01*
X143177683Y-99226785D01*
X143034826Y-99226785D01*
X142844350Y-99274404D01*
X142749112Y-99322023D01*
X142653874Y-99417261D01*
X142606254Y-99560119D01*
X142606254Y-99655357D01*
X142653874Y-99798214D01*
X142701493Y-99845833D01*
X142939588Y-100702976D02*
X143606254Y-100702976D01*
X142558635Y-100464880D02*
X143272921Y-100226785D01*
X143272921Y-100845833D01*
%TO.C,D3*%
X164842348Y-106883122D02*
X163842348Y-106883122D01*
X163842348Y-107121218D01*
X163889968Y-107264075D01*
X163985206Y-107359313D01*
X164080444Y-107406932D01*
X164270920Y-107454551D01*
X164413777Y-107454551D01*
X164604253Y-107406932D01*
X164699491Y-107359313D01*
X164794729Y-107264075D01*
X164842348Y-107121218D01*
X164842348Y-106883122D01*
X163842348Y-107787884D02*
X163842348Y-108406932D01*
X164223301Y-108073598D01*
X164223301Y-108216456D01*
X164270920Y-108311694D01*
X164318539Y-108359313D01*
X164413777Y-108406932D01*
X164651872Y-108406932D01*
X164747110Y-108359313D01*
X164794729Y-108311694D01*
X164842348Y-108216456D01*
X164842348Y-107930741D01*
X164794729Y-107835503D01*
X164747110Y-107787884D01*
%TO.C,C5*%
X136804288Y-115450892D02*
X136851907Y-115498511D01*
X136994764Y-115546130D01*
X137090002Y-115546130D01*
X137232860Y-115498511D01*
X137328098Y-115403273D01*
X137375717Y-115308035D01*
X137423336Y-115117559D01*
X137423336Y-114974702D01*
X137375717Y-114784226D01*
X137328098Y-114688988D01*
X137232860Y-114593750D01*
X137090002Y-114546130D01*
X136994764Y-114546130D01*
X136851907Y-114593750D01*
X136804288Y-114641369D01*
X135899526Y-114546130D02*
X136375717Y-114546130D01*
X136423336Y-115022321D01*
X136375717Y-114974702D01*
X136280479Y-114927083D01*
X136042383Y-114927083D01*
X135947145Y-114974702D01*
X135899526Y-115022321D01*
X135851907Y-115117559D01*
X135851907Y-115355654D01*
X135899526Y-115450892D01*
X135947145Y-115498511D01*
X136042383Y-115546130D01*
X136280479Y-115546130D01*
X136375717Y-115498511D01*
X136423336Y-115450892D01*
%TO.C,U1*%
X133504528Y-110883630D02*
X133504528Y-111693154D01*
X133456909Y-111788392D01*
X133409290Y-111836011D01*
X133314052Y-111883630D01*
X133123576Y-111883630D01*
X133028338Y-111836011D01*
X132980719Y-111788392D01*
X132933100Y-111693154D01*
X132933100Y-110883630D01*
X131933100Y-111883630D02*
X132504528Y-111883630D01*
X132218814Y-111883630D02*
X132218814Y-110883630D01*
X132314052Y-111026488D01*
X132409290Y-111121726D01*
X132504528Y-111169345D01*
%TO.C,C2*%
X128944642Y-92335853D02*
X128992261Y-92288234D01*
X129039880Y-92145377D01*
X129039880Y-92050139D01*
X128992261Y-91907281D01*
X128897023Y-91812043D01*
X128801785Y-91764424D01*
X128611309Y-91716805D01*
X128468452Y-91716805D01*
X128277976Y-91764424D01*
X128182738Y-91812043D01*
X128087500Y-91907281D01*
X128039880Y-92050139D01*
X128039880Y-92145377D01*
X128087500Y-92288234D01*
X128135119Y-92335853D01*
X128135119Y-92716805D02*
X128087500Y-92764424D01*
X128039880Y-92859662D01*
X128039880Y-93097758D01*
X128087500Y-93192996D01*
X128135119Y-93240615D01*
X128230357Y-93288234D01*
X128325595Y-93288234D01*
X128468452Y-93240615D01*
X129039880Y-92669186D01*
X129039880Y-93288234D01*
%TO.C,Y1*%
X133891210Y-94928710D02*
X133891210Y-95404900D01*
X134224543Y-94404900D02*
X133891210Y-94928710D01*
X133557877Y-94404900D01*
X132700734Y-95404900D02*
X133272162Y-95404900D01*
X132986448Y-95404900D02*
X132986448Y-94404900D01*
X133081686Y-94547758D01*
X133176924Y-94642996D01*
X133272162Y-94690615D01*
%TO.C,R5*%
X111577380Y-91114583D02*
X111101190Y-90781250D01*
X111577380Y-90543154D02*
X110577380Y-90543154D01*
X110577380Y-90924107D01*
X110625000Y-91019345D01*
X110672619Y-91066964D01*
X110767857Y-91114583D01*
X110910714Y-91114583D01*
X111005952Y-91066964D01*
X111053571Y-91019345D01*
X111101190Y-90924107D01*
X111101190Y-90543154D01*
X110577380Y-92019345D02*
X110577380Y-91543154D01*
X111053571Y-91495535D01*
X111005952Y-91543154D01*
X110958333Y-91638392D01*
X110958333Y-91876488D01*
X111005952Y-91971726D01*
X111053571Y-92019345D01*
X111148809Y-92066964D01*
X111386904Y-92066964D01*
X111482142Y-92019345D01*
X111529761Y-91971726D01*
X111577380Y-91876488D01*
X111577380Y-91638392D01*
X111529761Y-91543154D01*
X111482142Y-91495535D01*
%TO.C,R4*%
X143576254Y-106989583D02*
X143100064Y-106656250D01*
X143576254Y-106418154D02*
X142576254Y-106418154D01*
X142576254Y-106799107D01*
X142623874Y-106894345D01*
X142671493Y-106941964D01*
X142766731Y-106989583D01*
X142909588Y-106989583D01*
X143004826Y-106941964D01*
X143052445Y-106894345D01*
X143100064Y-106799107D01*
X143100064Y-106418154D01*
X142909588Y-107846726D02*
X143576254Y-107846726D01*
X142528635Y-107608630D02*
X143242921Y-107370535D01*
X143242921Y-107989583D01*
%TO.C,R3*%
X112879166Y-104371130D02*
X113212500Y-103894940D01*
X113450595Y-104371130D02*
X113450595Y-103371130D01*
X113069642Y-103371130D01*
X112974404Y-103418750D01*
X112926785Y-103466369D01*
X112879166Y-103561607D01*
X112879166Y-103704464D01*
X112926785Y-103799702D01*
X112974404Y-103847321D01*
X113069642Y-103894940D01*
X113450595Y-103894940D01*
X112545833Y-103371130D02*
X111926785Y-103371130D01*
X112260119Y-103752083D01*
X112117261Y-103752083D01*
X112022023Y-103799702D01*
X111974404Y-103847321D01*
X111926785Y-103942559D01*
X111926785Y-104180654D01*
X111974404Y-104275892D01*
X112022023Y-104323511D01*
X112117261Y-104371130D01*
X112402976Y-104371130D01*
X112498214Y-104323511D01*
X112545833Y-104275892D01*
%TO.C,R1*%
X121102380Y-101433333D02*
X120626190Y-101100000D01*
X121102380Y-100861904D02*
X120102380Y-100861904D01*
X120102380Y-101242857D01*
X120150000Y-101338095D01*
X120197619Y-101385714D01*
X120292857Y-101433333D01*
X120435714Y-101433333D01*
X120530952Y-101385714D01*
X120578571Y-101338095D01*
X120626190Y-101242857D01*
X120626190Y-100861904D01*
X121102380Y-102385714D02*
X121102380Y-101814285D01*
X121102380Y-102100000D02*
X120102380Y-102100000D01*
X120245238Y-102004761D01*
X120340476Y-101909523D01*
X120388095Y-101814285D01*
%TO.C,C7*%
X125227142Y-101433333D02*
X125274761Y-101385714D01*
X125322380Y-101242857D01*
X125322380Y-101147619D01*
X125274761Y-101004761D01*
X125179523Y-100909523D01*
X125084285Y-100861904D01*
X124893809Y-100814285D01*
X124750952Y-100814285D01*
X124560476Y-100861904D01*
X124465238Y-100909523D01*
X124370000Y-101004761D01*
X124322380Y-101147619D01*
X124322380Y-101242857D01*
X124370000Y-101385714D01*
X124417619Y-101433333D01*
X124322380Y-101766666D02*
X124322380Y-102433333D01*
X125322380Y-102004761D01*
%TO.C,C1*%
X129706666Y-115067142D02*
X129754285Y-115114761D01*
X129897142Y-115162380D01*
X129992380Y-115162380D01*
X130135238Y-115114761D01*
X130230476Y-115019523D01*
X130278095Y-114924285D01*
X130325714Y-114733809D01*
X130325714Y-114590952D01*
X130278095Y-114400476D01*
X130230476Y-114305238D01*
X130135238Y-114210000D01*
X129992380Y-114162380D01*
X129897142Y-114162380D01*
X129754285Y-114210000D01*
X129706666Y-114257619D01*
X128754285Y-115162380D02*
X129325714Y-115162380D01*
X129040000Y-115162380D02*
X129040000Y-114162380D01*
X129135238Y-114305238D01*
X129230476Y-114400476D01*
X129325714Y-114448095D01*
%TO.C,D2*%
X183892348Y-87833122D02*
X182892348Y-87833122D01*
X182892348Y-88071218D01*
X182939968Y-88214075D01*
X183035206Y-88309313D01*
X183130444Y-88356932D01*
X183320920Y-88404551D01*
X183463777Y-88404551D01*
X183654253Y-88356932D01*
X183749491Y-88309313D01*
X183844729Y-88214075D01*
X183892348Y-88071218D01*
X183892348Y-87833122D01*
X182987587Y-88785503D02*
X182939968Y-88833122D01*
X182892348Y-88928360D01*
X182892348Y-89166456D01*
X182939968Y-89261694D01*
X182987587Y-89309313D01*
X183082825Y-89356932D01*
X183178063Y-89356932D01*
X183320920Y-89309313D01*
X183892348Y-88737884D01*
X183892348Y-89356932D01*
%TO.C,C6*%
X124785416Y-97194642D02*
X124833035Y-97242261D01*
X124975892Y-97289880D01*
X125071130Y-97289880D01*
X125213988Y-97242261D01*
X125309226Y-97147023D01*
X125356845Y-97051785D01*
X125404464Y-96861309D01*
X125404464Y-96718452D01*
X125356845Y-96527976D01*
X125309226Y-96432738D01*
X125213988Y-96337500D01*
X125071130Y-96289880D01*
X124975892Y-96289880D01*
X124833035Y-96337500D01*
X124785416Y-96385119D01*
X123928273Y-96289880D02*
X124118750Y-96289880D01*
X124213988Y-96337500D01*
X124261607Y-96385119D01*
X124356845Y-96527976D01*
X124404464Y-96718452D01*
X124404464Y-97099404D01*
X124356845Y-97194642D01*
X124309226Y-97242261D01*
X124213988Y-97289880D01*
X124023511Y-97289880D01*
X123928273Y-97242261D01*
X123880654Y-97194642D01*
X123833035Y-97099404D01*
X123833035Y-96861309D01*
X123880654Y-96766071D01*
X123928273Y-96718452D01*
X124023511Y-96670833D01*
X124213988Y-96670833D01*
X124309226Y-96718452D01*
X124356845Y-96766071D01*
X124404464Y-96861309D01*
%TO.C,C3*%
X138533142Y-92289333D02*
X138580761Y-92241714D01*
X138628380Y-92098857D01*
X138628380Y-92003619D01*
X138580761Y-91860761D01*
X138485523Y-91765523D01*
X138390285Y-91717904D01*
X138199809Y-91670285D01*
X138056952Y-91670285D01*
X137866476Y-91717904D01*
X137771238Y-91765523D01*
X137676000Y-91860761D01*
X137628380Y-92003619D01*
X137628380Y-92098857D01*
X137676000Y-92241714D01*
X137723619Y-92289333D01*
X137628380Y-92622666D02*
X137628380Y-93241714D01*
X138009333Y-92908380D01*
X138009333Y-93051238D01*
X138056952Y-93146476D01*
X138104571Y-93194095D01*
X138199809Y-93241714D01*
X138437904Y-93241714D01*
X138533142Y-93194095D01*
X138580761Y-93146476D01*
X138628380Y-93051238D01*
X138628380Y-92765523D01*
X138580761Y-92670285D01*
X138533142Y-92622666D01*
D12*
%TO.C,C8*%
X131027500Y-82044998D02*
X131027500Y-82567502D01*
X132497500Y-82044998D02*
X132497500Y-82567502D01*
%TO.C,R2*%
X117554532Y-101372936D02*
X117554532Y-101827064D01*
X116084532Y-101372936D02*
X116084532Y-101827064D01*
%TO.C,R6*%
X122972500Y-91054186D02*
X122972500Y-91508314D01*
X121502500Y-91054186D02*
X121502500Y-91508314D01*
%TO.C,D4*%
X180439968Y-109871218D02*
X180439968Y-105971218D01*
X182439968Y-109871218D02*
X182439968Y-105971218D01*
X182439968Y-109871218D02*
X180439968Y-109871218D01*
%TO.C,F1*%
X126322500Y-89885436D02*
X126322500Y-91089564D01*
X124502500Y-89885436D02*
X124502500Y-91089564D01*
D11*
%TO.C,SW1*%
X113712500Y-111125000D02*
G75*
G03*
X113712500Y-111125000I-1000000J0D01*
G01*
X115312500Y-108525000D02*
X110112500Y-108525000D01*
X110112500Y-108525000D02*
X110112500Y-113725000D01*
X115312500Y-113725000D02*
X115312500Y-108525000D01*
X110112500Y-113725000D02*
X115312500Y-113725000D01*
D12*
%TO.C,D1*%
X163389968Y-90821218D02*
X163389968Y-86921218D01*
X163389968Y-90821218D02*
X161389968Y-90821218D01*
X161389968Y-90821218D02*
X161389968Y-86921218D01*
%TO.C,C4*%
X142208874Y-100273752D02*
X142208874Y-99751248D01*
X140738874Y-100273752D02*
X140738874Y-99751248D01*
%TO.C,D3*%
X163389968Y-109871218D02*
X161389968Y-109871218D01*
X163389968Y-109871218D02*
X163389968Y-105971218D01*
X161389968Y-109871218D02*
X161389968Y-105971218D01*
%TO.C,C5*%
X137160126Y-112771250D02*
X136637622Y-112771250D01*
X137160126Y-114241250D02*
X136637622Y-114241250D01*
D11*
%TO.C,U1*%
X127567624Y-109156250D02*
X128242624Y-109156250D01*
X137917624Y-109156250D02*
X137242624Y-109156250D01*
X137917624Y-109156250D02*
X137917624Y-108481250D01*
X127567624Y-108581250D02*
X126292624Y-108581250D01*
X137917624Y-98806250D02*
X137242624Y-98806250D01*
X127567624Y-98806250D02*
X127567624Y-99481250D01*
X137917624Y-98806250D02*
X137917624Y-99481250D01*
X127567624Y-98806250D02*
X128242624Y-98806250D01*
X127567624Y-109156250D02*
X127567624Y-108581250D01*
D12*
%TO.C,C2*%
X130975020Y-92763772D02*
X130975020Y-92241268D01*
X129505020Y-92763772D02*
X129505020Y-92241268D01*
%TO.C,Y1*%
X131415020Y-90852520D02*
X135415020Y-90852520D01*
X131415020Y-94152520D02*
X131415020Y-90852520D01*
%TO.C,R5*%
X113447500Y-91508314D02*
X113447500Y-91054186D01*
X111977500Y-91508314D02*
X111977500Y-91054186D01*
%TO.C,R4*%
X140738874Y-107383314D02*
X140738874Y-106929186D01*
X142208874Y-107383314D02*
X142208874Y-106929186D01*
%TO.C,R3*%
X112939564Y-106303750D02*
X112485436Y-106303750D01*
X112939564Y-104833750D02*
X112485436Y-104833750D01*
%TO.C,R1*%
X118137000Y-101372936D02*
X118137000Y-101827064D01*
X119607000Y-101372936D02*
X119607000Y-101827064D01*
%TO.C,C7*%
X122455000Y-101861252D02*
X122455000Y-101338748D01*
X123925000Y-101861252D02*
X123925000Y-101338748D01*
%TO.C,C1*%
X129278748Y-113765000D02*
X129801252Y-113765000D01*
X129278748Y-112295000D02*
X129801252Y-112295000D01*
%TO.C,D2*%
X182439968Y-90821218D02*
X182439968Y-86921218D01*
X182439968Y-90821218D02*
X180439968Y-90821218D01*
X180439968Y-90821218D02*
X180439968Y-86921218D01*
%TO.C,C6*%
X124880002Y-94515000D02*
X124357498Y-94515000D01*
X124880002Y-95985000D02*
X124357498Y-95985000D01*
%TO.C,C3*%
X135855020Y-92241268D02*
X135855020Y-92763772D01*
X137325020Y-92241268D02*
X137325020Y-92763772D01*
%TD*%
M02*
